<svg id="empty-cross" enable-background="new 0 0 300 300" height="512" viewBox="0 0 300 300" width="512" xmlns="http://www.w3.org/2000/svg"><g><path d="m194.22 193.948c0 2.362 1.915 4.276 4.276 4.276s4.276-1.915 4.276-4.276-1.915-4.277-4.276-4.277-4.276 1.915-4.276 4.277z"/><path d="m251.932 192.766c-1.975-6.512-8.877-10.195-15.385-8.229-3.154.955-5.748 3.082-7.303 5.988s-1.883 6.244-.928 9.398c1.613 5.322 6.52 8.76 11.814 8.76 1.182 0 2.385-.172 3.572-.531 6.511-1.974 10.202-8.877 8.23-15.386zm-10.549 7.73c-2.287.693-4.717-.604-5.41-2.893-.336-1.109-.221-2.283.326-3.305s1.457-1.77 2.566-2.105c.418-.127.84-.188 1.256-.188 1.861 0 3.586 1.209 4.154 3.08.694 2.29-.603 4.718-2.892 5.411z"/><path d="m71.537 50c2.209 0 4-1.791 4-4v-12c0-2.209-1.791-4-4-4s-4 1.791-4 4v12c0 2.209 1.791 4 4 4z"/><path d="m71.537 58c-2.209 0-4 1.791-4 4v12c0 2.209 1.791 4 4 4s4-1.791 4-4v-12c0-2.209-1.791-4-4-4z"/><path d="m63.537 50h-12c-2.209 0-4 1.791-4 4s1.791 4 4 4h12c2.209 0 4-1.791 4-4s-1.791-4-4-4z"/><path d="m91.537 58c2.209 0 4-1.791 4-4s-1.791-4-4-4h-12c-2.209 0-4 1.791-4 4s1.791 4 4 4z"/><path d="m235.537 130c2.209 0 4-1.791 4-4v-32c0-2.209-1.791-4-4-4h-12c0-2.209-1.791-4-4-4h-24c-2.209 0-4 1.791-4 4h-8v-24c0-2.209-1.791-4-4-4v-24c0-2.209-1.791-4-4-4h-32c-2.209 0-4 1.791-4 4v24c-2.209 0-4 1.791-4 4v24h-8c0-2.209-1.791-4-4-4h-24c-2.209 0-4 1.791-4 4h-12c-2.209 0-4 1.791-4 4v32c0 2.209 1.791 4 4 4h12v52c0 1.475.812 2.83 2.113 3.527 1.293.695 2.873.615 4.105-.199l9.781-6.521 9.781 6.521c.67.447 1.443.672 2.219.672.646 0 1.297-.156 1.887-.473 1.301-.697 2.113-2.053 2.113-3.527v-52h12v132h-28c-2.209 0-4 1.791-4 4s1.791 4 4 4h96c2.209 0 4-1.791 4-4s-1.791-4-4-4h-28v-132h12v20c0 1.475.812 2.83 2.113 3.527 1.293.693 2.873.613 4.105-.199l9.781-6.521 9.781 6.521c.67.447 1.443.672 2.219.672.646 0 1.297-.156 1.887-.473 1.301-.697 2.113-2.053 2.113-3.527v-20zm-4-32v24h-8v-24zm-88-28h32v20h-32zm4-28h24v20h-24zm-60 80v-24h8v24zm32 52.525-5.781-3.854c-.672-.447-1.445-.672-2.219-.672s-1.547.225-2.219.672l-5.781 3.854v-80.525h16zm56-52.525c-2.209 0-4 1.791-4 4v136h-24v-136c0-2.209-1.791-4-4-4h-16v-24h12 40 12v24zm40 20.525-5.781-3.854c-.672-.447-1.445-.672-2.219-.672s-1.547.225-2.219.672l-5.781 3.854v-48.525h16z"/></g></svg>