<?xml version="1.0" encoding="iso-8859-1"?>
<!-- Generator: Adobe Illustrator 19.0.0, SVG Export Plug-In . SVG Version: 6.00 Build 0)  -->
<svg xmlns="http://www.w3.org/2000/svg" xmlns:xlink="http://www.w3.org/1999/xlink" version="1.1" id="Layer_1" x="0px" y="0px" viewBox="0 0 512 512" style="enable-background:new 0 0 512 512;" xml:space="preserve" width="512" height="512">
<g>
	<path d="M222,80h-92c-5.523,0-10,4.478-10,10s4.477,10,10,10h92c5.523,0,10-4.478,10-10S227.523,80,222,80z"/>
	<path d="M290,100h92c5.523,0,10-4.478,10-10s-4.477-10-10-10h-92c-5.523,0-10,4.478-10,10S284.477,100,290,100z"/>
	<path d="M502,492c-5.51,0-10,4.49-10,10s4.49,10,10,10c5.51,0,10-4.49,10-10S507.51,492,502,492z"/>
	<path d="M462,492h-86v-48c0-5.522-4.477-10-10-10h-75V220h99c4.332,0,8.171-2.789,9.51-6.909l52-160   c0.99-3.044,0.461-6.379-1.42-8.969S445.201,40,442,40h-44.56l8.138-27.127c0.909-3.027,0.332-6.307-1.555-8.843S399.161,0,396,0   h-91.208C284.951,0,266.948,9.878,256,25.326C245.052,9.878,227.049,0,207.208,0H116c-3.161,0-6.136,1.494-8.023,4.03   s-2.464,5.815-1.555,8.843L114.56,40H70c-3.201,0-6.209,1.532-8.09,4.122s-2.41,5.925-1.42,8.969l52,160   c1.339,4.12,5.178,6.909,9.51,6.909h99v214h-75c-5.523,0-10,4.478-10,10v48H10c-5.51,0-10,4.49-10,10s4.49,10,10,10h452   c5.51,0,10-4.49,10-10S467.51,492,462,492z M304.792,20h77.768l-6,20H270.304C277.249,27.931,290.286,20,304.792,20z M129.44,20   h77.768c14.506,0,27.543,7.931,34.488,20H135.44L129.44,20z M241,172c0-5.522-4.477-10-10-10s-10,4.478-10,10v28h-91.735l-45.5-140   h344.471l-45.5,140H291v-28c0-5.522-4.477-10-10-10s-10,4.478-10,10v262h-30V172z M156,492v-38h75h50h75v38H156z"/>
</g>















</svg>
